#!OML:ASF I:\golf\golf\golf 2\Subject 1\2002-09-07\Subject1.ASF
:FULLY-SPECIFIED
:DEGREES
507
root -8.45126 17.9518 4.81837 -158.019 76.4844 -174.83
lowerback 6.59207 2.04628 1.93824
upperback 7.73812 3.15365 6.51999
thorax 4.09518 1.70382 5.64852
lowerneck -12.1751 1.65079 5.05816
upperneck 38.3629 6.40338 -7.49085
head 16.1328 3.10994 -2.89438
rclavicle -5.24792e-014 1.43125e-014
rhumerus -15.9248 44.1964 -92.1236
rradius 63.5876
rwrist -59.1627
rhand -35.8137 -20.0896
rfingers 7.12502
rthumb -8.93 -49.8806
lclavicle -5.24792e-014 1.43125e-014
lhumerus -17.3399 -47.5366 105.72
lradius 65.3997
lwrist 65.1377
lhand -11.255 64.8527
lfingers 7.12502
lthumb -165.225 85.6939
rfemur -32.3282 -10.1879 16.724
rtibia 31.8004
rfoot -9.12696 -12.6357
rtoes -0.122902
lfemur -34.8673 0.14033 -17.6582
ltibia 25.6106
lfoot -7.14359 -18.857
ltoes -0.44799
508
root -8.44703 17.9566 4.81673 -157.934 76.3414 -174.76
lowerback 6.5586 1.95864 1.93548
upperback 7.74025 3.03722 6.5655
thorax 4.12386 1.64513 5.70521
lowerneck -12.1348 1.74244 4.96624
upperneck 38.2459 6.55228 -7.51018
head 16.0753 3.15273 -2.85799
rclavicle -3.33958e-014 1.27222e-014
rhumerus -15.8762 44.3976 -92.1253
rradius 63.5036
rwrist -59.0638
rhand -35.6649 -19.8421
rfingers 7.12502
rthumb -8.78644 -49.6392
lclavicle -3.33958e-014 1.27222e-014
lhumerus -17.2167 -47.2745 105.688
lradius 65.3385
lwrist 65.0499
lhand -11.3254 64.9815
lfingers 7.12502
lthumb -165.293 85.5601
rfemur -32.2889 -10.2509 16.7766
rtibia 31.7853
rfoot -9.19207 -12.681
rtoes 0.493335
lfemur -34.8349 0.0464838 -17.5901
ltibia 25.5535
lfoot -7.13235 -18.8636
ltoes -0.728081
509
root -8.44312 17.9569 4.81623 -157.789 76.313 -174.664
lowerback 6.48864 1.89825 1.83448
upperback 7.72738 2.94978 6.61923
thorax 4.1498 1.59494 5.82606
lowerneck -12.0554 1.83409 4.89794
upperneck 38.1426 6.73218 -7.60264
head 16.0233 3.20572 -2.85342
rclavicle -1.59028e-015 7.95139e-015
rhumerus -15.8663 44.6569 -92.1524
rradius 63.4749
rwrist -59.0948
rhand -35.6827 -19.6434
rfingers 7.12502
rthumb -8.80362 -49.4398
lclavicle -1.59028e-015 7.95139e-015
lhumerus -17.1575 -46.99 105.677
lradius 65.3104
lwrist 64.9931
lhand -11.5757 65.0914
lfingers 7.12502
lthumb -165.534 85.4328
rfemur -32.318 -10.2419 16.8123
rtibia 31.7752
rfoot -9.23419 -12.7188
rtoes 0.485575
lfemur -34.89 0.061401 -17.5698
ltibia 25.5177
lfoot -7.07083 -18.9127
ltoes -0.605008
510
root -8.43911 17.9556 4.81756 -157.589 76.3674 -174.532
lowerback 6.41567 1.96812 1.79165
upperback 7.69123 3.03442 6.59658
thorax 4.14358 1.63394 5.82446
lowerneck -12.05 1.81891 4.95747
upperneck 38.1162 6.69717 -7.62537
head 16.008 3.19725 -2.87944
rclavicle 1.90833e-014 7.95139e-015
rhumerus -15.8849 44.5242 -92.2164
rradius 63.466
rwrist -59.0989
rhand -35.7968 -19.762
rfingers 7.12502
rthumb -8.91373 -49.5537
lclavicle 1.90833e-014 7.95139e-015
lhumerus -17.231 -47.0741 105.71
lradius 65.3235
lwrist 65.0013
lhand -11.6347 65.2003
lfingers 7.12502
lthumb -165.591 85.3199
rfemur -32.404 -10.2383 16.8638
rtibia 31.7757
rfoot -9.19789 -12.6904
rtoes -0.0210503
lfemur -34.9545 0.14388 -17.5589
ltibia 25.4844
lfoot -7.01937 -18.9846
ltoes -0.277646
511
root -8.43595 17.9559 4.8183 -157.591 76.332 -174.549
lowerback 6.41746 2.04785 1.81745
upperback 7.6658 3.1398 6.5451
thorax 4.10979 1.68824 5.7492
lowerneck -12.1374 1.77126 5.05215
upperneck 38.1283 6.59137 -7.6166
head 16.0276 3.16622 -2.91037
rclavicle 1.59028e-015 3.18055e-014
rhumerus -15.8156 44.1843 -92.2402
rradius 63.2936
rwrist -58.7833
rhand -35.5826 -19.9501
rfingers 7.12502
rthumb -8.70703 -49.7505
lclavicle 1.59028e-015 3.18055e-014
lhumerus -17.3087 -47.319 105.72
lradius 65.3573
lwrist 65.0122
lhand -11.4444 65.1867
lfingers 7.12502
lthumb -165.408 85.3467
rfemur -32.4156 -10.2885 16.8812
rtibia 31.7908
rfoot -9.23523 -12.6443
rtoes 0.195823
lfemur -34.9457 0.160372 -17.5631
ltibia 25.4422
lfoot -6.98583 -19.0378
ltoes -0.162942
512
root -8.43255 17.9568 4.81809 -157.955 76.2535 -174.906
lowerback 6.46033 2.07882 1.79329
upperback 7.63731 3.18139 6.49717
thorax 4.05283 1.70856 5.70601
lowerneck -12.1913 1.75732 5.07303
upperneck 38.1302 6.55047 -7.58643
head 16.0367 3.15501 -2.90726
rclavicle -6.52014e-014 -3.33958e-014
rhumerus -15.7556 43.9659 -92.2616
rradius 63.0699
rwrist -58.4723
rhand -35.3282 -19.9684
rfingers 7.12502
rthumb -8.46153 -49.7789
lclavicle -6.52014e-014 -3.33958e-014
lhumerus -17.3745 -47.4762 105.75
lradius 65.3821
lwrist 65.109
lhand -11.41 65.1474
lfingers 7.12502
lthumb -165.375 85.3883
rfemur -32.3725 -10.3453 16.8033
rtibia 31.802
rfoot -9.27671 -12.6943
rtoes 0.441676
lfemur -34.8842 0.144603 -17.6579
ltibia 25.4114
lfoot -7.0919 -19.0623
ltoes -0.676142
513
root -8.42897 17.9574 4.81821 -158.301 76.2457 -175.257
lowerback 6.49666 2.12044 1.73738
upperback 7.60906 3.23463 6.44209
thorax 3.99757 1.73288 5.673
lowerneck -12.2545 1.74544 5.05957
upperneck 38.1672 6.50625 -7.50038
head 16.0618 3.14455 -2.87479
rclavicle 4.77083e-015 -5.24792e-014
rhumerus -15.7549 43.8377 -92.2902
rradius 62.9502
rwrist -58.383
rhand -35.2525 -19.8218
rfingers 7.12502
rthumb -8.38845 -49.6352
lclavicle 4.77083e-015 -5.24792e-014
lhumerus -17.4255 -47.592 105.798
lradius 65.3669
lwrist 65.212
lhand -11.433 65.1247
lfingers 7.12502
lthumb -165.397 85.4094
rfemur -32.3458 -10.3454 16.7094
rtibia 31.7944
rfoot -9.32192 -12.7503
rtoes 0.837388
lfemur -34.8364 0.194016 -17.7744
ltibia 25.413
lfoot -7.28007 -19.1051
ltoes -1.34205
514
root -8.4256 17.9577 4.8179 -158.366 76.2593 -175.321
lowerback 6.51066 2.12816 1.64155
upperback 7.60992 3.24298 6.47424
thorax 3.98348 1.73228 5.76046
lowerneck -12.2786 1.78943 4.95858
upperneck 38.1384 6.58531 -7.47608
head 16.0562 3.16414 -2.83101
rclavicle 0 3.81667e-014
rhumerus -15.7471 43.9247 -92.1795
rradius 62.9754
rwrist -58.3355
rhand -35.0632 -19.8086
rfingers 7.12502
rthumb -8.20581 -49.6292
lclavicle 0 3.81667e-014
lhumerus -17.3935 -47.5098 105.835
lradius 65.3665
lwrist 65.2457
lhand -11.3129 65.0562
lfingers 7.12502
lthumb -165.281 85.4864
rfemur -32.3179 -10.3103 16.6762
rtibia 31.7686
rfoot -9.32897 -12.747
rtoes 0.973456
lfemur -34.8306 0.299021 -17.8295
ltibia 25.43
lfoot -7.35773 -19.2262
ltoes -1.49906
515
root -8.42206 17.959 4.81604 -158.083 76.1991 -175.033
lowerback 6.49481 2.06735 1.63179
upperback 7.62123 3.1641 6.55493
thorax 4.00721 1.69195 5.85697
lowerneck -12.2355 1.88393 4.88056
upperneck 38.0452 6.78811 -7.60359
head 16.0225 3.22056 -2.83587
rclavicle -5.24792e-014 -6.36111e-014
rhumerus -15.7165 44.1652 -92.0388
rradius 63.0654
rwrist -58.1667
rhand -34.6652 -20.1013
rfingers 7.12502
rthumb -7.82161 -49.9367
lclavicle -5.24792e-014 -6.36111e-014
lhumerus -17.3043 -47.2304 105.805
lradius 65.3912
lwrist 65.2576
lhand -11.2031 65.0633
lfingers 7.12502
lthumb -165.175 85.487
rfemur -32.2661 -10.3276 16.7606
rtibia 31.7105
rfoot -9.27357 -12.7601
rtoes 0.565453
lfemur -34.8043 0.305978 -17.7416
ltibia 25.4516
lfoot -7.46793 -19.258
ltoes -1.71505
516
root -8.41876 17.961 4.8141 -157.877 76.1292 -174.806
lowerback 6.50261 2.04414 1.72246
upperback 7.62 3.13762 6.54739
thorax 4.00876 1.68354 5.79817
lowerneck -12.239 1.92083 4.92755
upperneck 38.0458 6.87734 -7.70804
head 16.0408 3.25223 -2.87481
rclavicle 1.11319e-014 3.18055e-014
rhumerus -15.7705 44.2051 -92.0557
rradius 63.1554
rwrist -58.1032
rhand -34.5432 -20.3752
rfingers 7.12502
rthumb -7.70391 -50.2148
lclavicle 1.11319e-014 3.18055e-014
lhumerus -17.3168 -47.1623 105.771
lradius 65.3976
lwrist 65.2383
lhand -11.1955 65.1582
lfingers 7.12502
lthumb -165.168 85.3927
rfemur -32.1811 -10.3662 16.8356
rtibia 31.6222
rfoot -9.24523 -12.7964
rtoes 0.692665
lfemur -34.7555 0.175604 -17.6227
ltibia 25.4803
lfoot -7.58563 -19.1286
ltoes -2.08964
517
root -8.41527 17.9654 4.81323 -157.773 76.1324 -174.678
lowerback 6.51556 2.0804 1.72827
upperback 7.61426 3.18656 6.53789
thorax 3.99183 1.70854 5.78174
lowerneck -12.1963 1.95291 4.97194
upperneck 37.9973 6.91004 -7.71475
head 16.0106 3.27211 -2.87916
rclavicle 6.67916e-014 8.90555e-014
rhumerus -15.8898 44.1903 -92.0751
rradius 63.2668
rwrist -58.2798
rhand -34.7162 -20.4568
rfingers 7.12502
rthumb -7.87089 -50.2902
lclavicle 6.67916e-014 8.90555e-014
lhumerus -17.4378 -47.246 105.795
lradius 65.4623
lwrist 65.2611
lhand -11.1778 65.2417
lfingers 7.12502
lthumb -165.151 85.3104
rfemur -32.1009 -10.3681 16.866
rtibia 31.5259
rfoot -9.21089 -12.7993
rtoes 0.916239
lfemur -34.7163 0.136702 -17.5744
ltibia 25.4898
lfoot -7.58745 -19.0567
ltoes -2.1035
